<svg width="145" height="260" viewBox="0 0 145 260" fill="none" xmlns="http://www.w3.org/2000/svg">
<path fill-rule="evenodd" clip-rule="evenodd" d="M46 8H2C0.895431 8 0 8.89542 0 9.99999V258C0 259.105 0.89543 260 2 260H46H135C136.105 260 137 259.105 137 258V227V214V137C137 135.895 136.105 135 135 135H64C62.8954 135 62 135.895 62 137V157.5C62 158.605 62.8954 159.5 64 159.5H89C90.1046 159.5 91 160.395 91 161.5V212C91 213.105 90.1046 214 89 214H48C46.8954 214 46 213.105 46 212L46 56C46 54.8954 46.8954 54 48 54L135 54C136.105 54 137 53.1046 137 52V10C137 8.89543 136.105 8 135 8H46Z" fill="black"/>
<path fill-rule="evenodd" clip-rule="evenodd" d="M49 5H5C3.89543 5 3 5.89542 3 6.99999V255C3 256.105 3.89543 257 5 257H49H138C139.105 257 140 256.105 140 255V224V211V134C140 132.895 139.105 132 138 132H67C65.8954 132 65 132.895 65 134V154.5C65 155.605 65.8954 156.5 67 156.5H92C93.1046 156.5 94 157.395 94 158.5V209C94 210.105 93.1046 211 92 211H51C49.8954 211 49 210.105 49 209L49 53C49 51.8954 49.8954 51 51 51L138 51C139.105 51 140 50.1046 140 49V7C140 5.89543 139.105 5 138 5H49Z" fill="#7000FF"/>
<path fill-rule="evenodd" clip-rule="evenodd" d="M54 0H10C8.89543 0 8 0.895423 8 1.99999V250C8 251.105 8.89543 252 10 252H54H143C144.105 252 145 251.105 145 250V219V206V129C145 127.895 144.105 127 143 127H72C70.8954 127 70 127.895 70 129V149.5C70 150.605 70.8954 151.5 72 151.5H97C98.1046 151.5 99 152.395 99 153.5V204C99 205.105 98.1046 206 97 206H56C54.8954 206 54 205.105 54 204L54 48C54 46.8954 54.8954 46 56 46L143 46C144.105 46 145 45.1046 145 44V2C145 0.895431 144.105 0 143 0H54Z" fill="white"/>
</svg>
